<?xml version="1.0" standalone="no"?>
<!DOCTYPE svg PUBLIC "-//W3C//DTD SVG 20010904//EN"
 "http://www.w3.org/TR/2001/REC-SVG-20010904/DTD/svg10.dtd">
<svg version="1.0" xmlns="http://www.w3.org/2000/svg"
 width="500.000000pt" height="500.000000pt" viewBox="0 0 500.000000 500.000000"
 preserveAspectRatio="xMidYMid meet">

<g transform="translate(0.000000,500.000000) scale(0.100000,-0.100000)"
fill="#000000" stroke="none">
<path d="M2379 4673 c-54 -8 -62 -30 -54 -153 5 -76 12 -115 22 -125 10 -11
37 -15 89 -15 73 0 74 1 74 25 0 25 0 26 -65 19 l-65 -7 0 40 c0 44 12 53 73
53 22 0 27 4 27 25 0 25 -1 25 -56 19 l-55 -7 3 39 c3 34 7 39 29 42 20 2 28
-2 32 -17 9 -38 67 -20 67 20 0 38 -46 53 -121 42z"/>
<path d="M2543 4668 c-6 -7 -14 -75 -18 -150 l-7 -138 26 0 c26 0 26 1 26 69
0 38 3 83 7 102 6 30 9 25 42 -72 33 -95 38 -104 63 -107 38 -5 44 15 52 160
l8 128 -26 11 c-22 10 -29 9 -46 -6 -26 -23 -25 -45 1 -52 19 -5 21 -11 15
-57 -3 -28 -6 -62 -6 -76 -1 -14 -18 25 -39 85 -33 98 -40 110 -63 113 -13 2
-29 -3 -35 -10z"/>
<path d="M2206 4654 c-21 -20 -20 -41 0 -52 14 -8 15 -16 8 -47 -5 -21 -14
-40 -19 -41 -6 -2 -26 25 -45 59 -24 43 -42 63 -58 65 -13 2 -22 -2 -22 -9 0
-17 75 -142 94 -158 8 -7 18 -34 22 -59 8 -59 10 -61 34 -55 17 5 20 13 19 62
-1 31 9 93 22 140 22 81 22 84 4 97 -24 18 -40 18 -59 -2z"/>
<path d="M2896 4608 c-8 -13 -23 -65 -35 -116 -12 -52 -24 -104 -27 -117 -6
-24 -13 -22 103 -41 76 -13 143 58 145 156 2 59 -20 96 -73 122 -49 25 -95 23
-113 -4z m120 -59 c36 -39 11 -149 -37 -164 -15 -5 -25 -1 -35 14 -9 12 -22
21 -30 21 -8 0 -14 7 -14 16 0 17 29 134 36 146 7 11 60 -11 80 -33z"/>
<path d="M1990 4614 c0 -4 12 -49 26 -100 31 -114 29 -145 -8 -158 -38 -13
-54 4 -79 86 -19 65 -19 71 -4 88 22 24 4 60 -29 60 -45 0 -52 -23 -31 -103
37 -148 73 -196 137 -183 18 3 45 18 60 33 33 31 36 71 14 149 -8 27 -20 68
-26 92 -9 35 -15 42 -35 42 -14 0 -25 -3 -25 -6z"/>
<path d="M3146 4548 c-8 -13 -27 -56 -41 -96 -45 -124 -26 -181 66 -197 55
-10 82 20 129 145 39 103 40 119 4 120 -6 0 -26 -42 -44 -92 -46 -130 -69
-151 -121 -110 l-22 19 28 81 c15 45 32 79 37 76 13 -8 38 16 38 37 0 17 -27
39 -49 39 -6 0 -17 -10 -25 -22z"/>
<path d="M1668 4510 c-50 -27 -72 -70 -66 -131 13 -133 141 -200 229 -121 36
33 50 102 29 152 -14 35 -13 35 -72 14 -56 -19 -82 -45 -73 -73 13 -41 75 -34
75 9 0 10 7 20 15 24 26 9 20 -69 -7 -94 -58 -54 -148 10 -148 105 0 65 68
104 118 68 29 -20 62 -20 62 1 0 23 -48 58 -87 62 -26 3 -50 -2 -75 -16z"/>
<path d="M3365 4480 c-3 -11 -8 -61 -9 -112 -2 -59 -9 -107 -19 -132 -30 -70
11 -80 45 -11 12 25 28 45 35 45 7 0 41 27 75 59 54 51 61 62 52 78 -23 38
-91 22 -79 -18 4 -13 -3 -27 -22 -44 -15 -13 -32 -25 -37 -25 -5 0 -6 35 -2
79 7 73 6 80 -13 90 -16 9 -21 7 -26 -9z"/>
<path d="M1476 4418 c-19 -27 -5 -58 27 -58 17 0 30 -15 56 -62 l34 -62 -86
67 c-90 70 -130 84 -142 47 -4 -13 15 -58 60 -140 37 -66 69 -120 71 -120 3 0
14 4 24 10 17 9 15 17 -35 105 l-54 95 91 -70 c49 -39 96 -70 102 -70 7 0 21
9 30 19 17 18 15 23 -35 113 -70 125 -87 148 -109 148 -10 0 -26 -10 -34 -22z"/>
<path d="M3658 4285 c-10 -21 -9 -29 5 -43 14 -14 21 -14 37 -4 35 22 23 -6
-43 -97 -83 -113 -81 -108 -58 -120 17 -10 28 0 93 90 64 90 73 98 76 75 5
-39 36 -52 62 -26 12 12 20 27 17 33 -6 20 -138 117 -158 117 -11 0 -24 -11
-31 -25z"/>
<path d="M1149 4199 c-35 -28 -67 -57 -72 -64 -10 -18 1 -43 25 -56 16 -9 25
-7 41 9 17 18 18 23 7 36 -7 9 -8 16 -3 16 8 0 126 -140 154 -183 4 -6 15 -4
28 5 21 15 19 17 -59 113 -72 89 -94 128 -57 96 17 -14 43 -6 51 16 8 19 -19
63 -38 63 -7 0 -42 -23 -77 -51z"/>
<path d="M3858 4140 c-14 -10 -58 -56 -98 -100 -69 -77 -72 -82 -56 -98 16
-16 20 -14 61 32 l43 50 10 -36 c6 -23 6 -54 0 -88 -8 -43 -7 -56 6 -68 14
-14 16 -12 27 14 6 16 13 46 16 66 5 33 9 37 27 32 31 -7 88 35 99 73 12 40
-13 87 -63 120 -40 28 -41 28 -72 3z m66 -55 c14 -13 26 -30 26 -37 0 -23 -30
-58 -49 -58 -25 0 -33 11 -20 27 9 10 8 18 -5 32 -14 15 -15 24 -6 40 14 27
21 26 54 -4z"/>
<path d="M1004 4071 c-30 -13 -84 -79 -84 -103 0 -14 34 -54 96 -115 77 -75
99 -91 110 -82 21 18 17 32 -21 69 l-34 33 29 34 c38 43 41 99 8 137 -25 29
-72 40 -104 27z m52 -49 c17 -11 32 -45 27 -60 -4 -10 -8 -10 -18 -2 -10 9
-19 6 -36 -11 l-22 -22 -20 24 -19 23 31 28 c33 30 40 32 57 20z"/>
<path d="M2061 4027 c-42 -21 -72 -60 -58 -74 19 -18 105 29 146 80 12 15 11
17 -15 17 -16 0 -49 -10 -73 -23z"/>
<path d="M2860 4015 c53 -57 125 -83 132 -47 3 15 6 14 16 -5 12 -21 11 -23
-15 -23 -36 0 -73 -10 -73 -20 0 -21 103 -45 155 -36 28 6 35 11 35 31 0 31
-37 74 -90 104 l-43 24 7 -27 7 -27 -40 26 c-22 13 -59 28 -83 31 l-43 7 35
-38z"/>
<path d="M1959 4011 c-53 -33 -79 -66 -79 -98 0 -39 90 -43 172 -8 l33 13 -28
11 c-16 6 -41 11 -57 11 l-30 0 21 40 c30 56 21 65 -32 31z"/>
<path d="M3950 3910 c-100 -94 -104 -100 -88 -117 17 -16 22 -12 110 72 51 49
99 95 107 102 12 10 12 15 1 27 -7 9 -15 16 -19 16 -3 -1 -53 -46 -111 -100z"/>
<path d="M1834 3950 c-52 -38 -74 -71 -74 -111 l0 -32 68 5 c69 5 137 31 127
48 -4 6 -30 10 -59 10 l-53 0 19 40 c11 21 18 46 16 55 -2 13 -11 10 -44 -15z"/>
<path d="M3116 3948 c3 -13 13 -35 21 -50 l14 -28 -55 0 c-30 0 -58 -4 -61
-10 -10 -15 65 -42 132 -48 53 -4 64 -2 69 13 10 25 -23 81 -67 116 -45 35
-63 38 -53 7z"/>
<path d="M850 3910 c-6 -11 -7 -20 -3 -20 4 -1 26 -16 47 -34 l40 -34 -28 -37
c-26 -33 -30 -35 -49 -22 -13 9 -21 25 -22 43 0 23 -5 30 -23 32 -29 4 -52
-14 -52 -42 0 -15 33 -47 111 -109 90 -72 113 -86 125 -76 22 18 16 32 -31 67
-25 18 -45 36 -45 40 0 4 12 23 28 41 l27 33 52 -42 c51 -40 52 -40 63 -19 7
11 8 24 3 28 -58 51 -214 171 -222 171 -6 0 -15 -9 -21 -20z"/>
<path d="M4002 3848 c-56 -45 -102 -88 -102 -95 0 -33 33 -22 104 36 41 34 77
61 80 61 2 0 -18 -40 -45 -89 -52 -96 -58 -121 -33 -142 19 -16 25 -13 146 84
73 59 88 76 86 96 -6 53 -75 53 -71 0 1 -18 -12 -35 -53 -67 -30 -24 -54 -40
-54 -36 0 4 23 47 51 96 38 66 49 95 45 113 -11 44 -45 31 -154 -57z"/>
<path d="M1698 3862 c-47 -43 -75 -99 -64 -127 15 -41 113 8 102 50 -3 13 -1
36 5 53 6 17 9 39 7 49 -3 15 -12 10 -50 -25z"/>
<path d="M3240 3883 c1 -10 7 -34 14 -55 l13 -36 -56 1 c-31 1 -58 -2 -60 -8
-13 -30 186 -85 203 -56 13 21 -4 68 -40 110 -45 52 -74 69 -74 44z"/>
<path d="M1581 3775 c-43 -50 -63 -91 -59 -128 3 -31 4 -32 48 -30 43 2 43 1
10 -6 -19 -4 -44 -12 -55 -18 -19 -11 -20 -8 -17 48 2 36 0 59 -7 59 -16 0
-61 -64 -81 -117 -13 -33 -19 -41 -20 -25 0 37 -22 21 -52 -37 -31 -59 -36
-116 -14 -147 13 -16 18 -17 35 -6 12 6 26 12 33 12 7 -1 -5 -10 -27 -22 -22
-12 -42 -21 -45 -20 -3 1 -9 22 -15 48 -5 26 -15 49 -21 51 -17 6 -54 -90 -54
-140 0 -29 7 -53 19 -68 19 -24 19 -24 40 -5 12 11 23 17 26 15 2 -3 -11 -17
-29 -31 l-34 -27 -19 51 c-11 29 -24 53 -30 55 -15 5 -33 -43 -39 -106 -6 -69
18 -126 53 -125 20 0 20 -1 5 -22 -17 -22 -17 -22 -47 35 -16 31 -34 55 -40
54 -16 -3 -28 -86 -20 -138 5 -36 15 -57 41 -83 25 -25 32 -38 25 -50 -7 -13
-10 -12 -16 7 -8 27 -63 91 -77 91 -7 0 -9 -27 -6 -74 5 -83 27 -129 74 -161
17 -11 28 -27 26 -36 -2 -13 -15 -4 -49 32 -25 27 -52 49 -59 49 -8 0 -14 -1
-14 -3 0 -28 26 -130 41 -158 21 -43 63 -79 90 -79 14 0 19 -7 19 -27 l0 -27
-42 41 c-24 22 -53 46 -65 52 -21 11 -23 10 -23 -16 0 -34 32 -106 67 -151 26
-35 86 -67 103 -57 6 4 10 -6 10 -20 l0 -26 -32 24 c-42 32 -98 60 -105 53
-10 -10 7 -53 39 -102 44 -65 113 -117 149 -112 21 3 29 0 33 -16 3 -11 4 -21
3 -22 -1 -2 -29 10 -62 26 -58 28 -95 37 -95 23 0 -3 14 -28 31 -54 56 -87
141 -145 200 -137 18 3 30 -1 34 -10 11 -29 4 -31 -42 -13 -65 25 -113 33
-113 20 0 -20 60 -87 108 -123 56 -41 130 -63 159 -48 15 8 22 6 32 -10 7 -11
11 -21 9 -23 -2 -2 -30 3 -63 11 -132 31 -142 13 -36 -66 95 -71 181 -97 233
-69 17 9 24 7 42 -10 l21 -22 -71 7 c-40 4 -84 4 -99 0 -26 -7 -26 -8 -11 -25
23 -26 121 -76 179 -91 55 -15 136 -8 151 12 9 12 17 11 49 -8 l38 -21 -89 -5
c-49 -3 -97 -10 -107 -16 -17 -9 -16 -12 15 -30 82 -50 275 -68 318 -28 16 14
25 12 111 -31 l93 -47 -52 -13 c-50 -13 -123 -47 -163 -77 -13 -10 -16 -21
-12 -39 l7 -26 46 36 c169 130 398 129 559 -3 l42 -35 7 26 c5 19 1 30 -12 40
-41 31 -114 65 -164 78 l-52 13 93 47 c89 44 94 45 112 29 30 -27 173 -23 259
6 120 42 111 61 -35 69 l-88 6 38 21 c31 18 40 20 51 9 46 -45 202 -15 303 59
43 31 43 31 19 40 -14 6 -59 7 -100 3 l-75 -6 25 25 c17 19 26 23 31 14 14
-22 109 -16 159 10 64 34 150 102 150 119 0 11 -10 13 -47 8 -27 -4 -63 -11
-82 -16 -42 -10 -47 -7 -29 20 10 14 18 17 28 11 20 -13 75 -2 125 23 42 21
145 122 145 142 0 14 -43 7 -119 -20 -55 -19 -53 -19 -40 8 8 18 17 23 34 19
61 -11 169 68 215 158 l22 43 -29 -7 c-15 -4 -50 -18 -78 -31 -27 -13 -50 -23
-52 -22 -1 2 0 12 3 24 4 14 12 19 24 16 29 -8 87 26 130 74 38 43 79 128 67
139 -7 7 -62 -21 -104 -53 l-33 -24 0 26 c0 15 5 25 13 24 29 -4 47 3 76 26
36 31 91 137 91 177 0 26 -2 28 -21 17 -12 -6 -41 -29 -65 -51 -44 -40 -44
-41 -44 -14 0 19 5 26 19 26 33 0 79 48 100 106 21 56 28 134 12 134 -5 0 -29
-22 -53 -49 l-45 -49 -12 34 c-14 39 -81 114 -101 114 -9 0 -11 -12 -6 -46 10
-76 28 -124 58 -156 15 -17 28 -40 28 -52 -1 -18 -3 -17 -17 9 -17 34 -63 85
-75 85 -12 0 -10 -132 3 -171 7 -19 21 -44 32 -56 11 -13 17 -29 13 -38 -4
-13 -13 -3 -34 36 -15 30 -34 54 -42 54 -34 0 -38 -189 -5 -225 12 -13 14 -26
9 -42 -6 -20 -9 -17 -24 29 -19 58 -39 88 -51 76 -15 -16 -39 -118 -39 -168 0
-30 6 -60 16 -74 15 -20 15 -25 2 -38 -13 -13 -16 -10 -22 26 -7 48 -26 91
-38 91 -14 0 -56 -98 -69 -158 -8 -42 -8 -58 4 -81 13 -27 13 -31 -3 -46 -17
-15 -18 -12 -22 49 -2 36 -7 68 -11 72 -13 13 -47 -28 -83 -100 -29 -58 -35
-80 -32 -120 3 -41 0 -51 -20 -64 -22 -15 -22 -14 -12 12 13 34 13 123 1 131
-12 7 -99 -92 -128 -147 -13 -22 -23 -58 -23 -78 0 -30 -5 -39 -25 -48 -30
-14 -30 -15 -5 39 21 47 27 109 10 109 -15 0 -128 -99 -163 -142 -17 -22 -30
-50 -31 -68 -1 -24 -6 -32 -26 -36 -14 -3 -32 -8 -40 -10 -8 -3 -3 7 11 23 15
15 34 42 43 60 16 32 22 73 10 73 -24 0 -173 -93 -205 -127 -50 -54 -52 -83
-6 -84 31 -1 31 -1 -20 -24 -28 -13 -78 -29 -111 -36 -55 -11 -65 -10 -143 14
-103 33 -127 47 -81 47 50 0 44 36 -17 93 -39 37 -174 117 -196 117 -11 0 -4
-42 11 -73 9 -18 28 -45 43 -60 14 -16 19 -26 11 -23 -8 2 -27 7 -42 10 -20 4
-25 11 -21 25 6 23 -11 56 -53 103 -35 40 -131 118 -145 118 -16 0 -9 -63 11
-109 25 -54 25 -53 -5 -39 -20 9 -25 19 -25 46 0 20 -9 54 -20 77 -24 50 -118
157 -131 149 -12 -7 -12 -96 1 -128 9 -26 9 -26 -14 -11 -20 13 -22 21 -18 64
4 42 -1 59 -33 119 -37 72 -70 111 -82 99 -3 -4 -9 -37 -12 -74 -5 -55 -8 -64
-18 -51 -10 11 -10 23 -2 47 11 30 8 73 -7 128 l-6 22 441 3 442 3 42 46 c42
46 43 46 90 39 38 -5 57 -16 90 -49 50 -48 90 -53 159 -21 24 11 151 58 283
105 391 138 389 137 399 167 8 23 1 46 -46 145 -30 65 -85 188 -123 274 -45
103 -74 158 -88 165 -13 6 -30 37 -50 92 l-30 83 -22 -21 c-49 -46 -119 -62
-300 -70 -155 -6 -175 -9 -228 -33 -31 -14 -60 -33 -63 -42 -5 -11 -13 -4 -34
28 -24 38 -99 97 -140 109 -10 3 0 14 30 33 58 36 95 70 131 123 l30 42 -53 0
c-64 0 -49 16 24 26 46 6 50 10 88 70 42 67 49 90 26 81 -8 -3 -32 -8 -53 -11
l-38 -6 40 19 c22 11 49 20 61 20 13 1 41 24 71 59 28 31 67 66 87 77 20 11
36 23 36 28 0 5 -55 7 -123 6 -118 -4 -126 -5 -198 -41 -128 -63 -245 -203
-289 -346 -11 -35 -20 -74 -20 -86 0 -11 -4 -27 -9 -35 -13 -21 -101 24 -173
89 l-57 51 -11 -43 c-27 -103 -50 -181 -55 -186 -3 -3 -28 0 -56 6 -91 21 -90
23 -125 -145 -21 -100 -28 -118 -54 -139 -38 -32 -63 -110 -125 -394 -33 -146
-54 -221 -66 -232 -18 -18 -39 -77 -39 -112 0 -15 -3 -17 -11 -9 -9 9 -9 19 1
42 6 16 12 53 12 81 -1 55 -26 155 -42 165 -13 8 -47 -49 -55 -93 -5 -28 -9
-33 -16 -21 -5 11 -2 29 11 55 14 27 20 57 19 104 -2 127 -27 149 -71 63 -19
-39 -28 -48 -32 -36 -4 9 2 25 14 38 11 12 25 37 30 56 12 41 13 169 2 169
-12 0 -58 -51 -75 -85 -16 -30 -16 -30 -17 -5 0 15 8 30 21 38 28 18 57 87 65
155 8 70 -2 73 -57 18 -22 -21 -39 -33 -39 -26 0 7 11 20 25 29 29 19 70 96
84 155 12 53 -2 54 -62 1 -34 -30 -44 -35 -40 -20 3 10 13 22 24 25 10 3 30
20 44 37 28 33 75 120 75 138 0 14 -36 3 -72 -21 -30 -21 -38 -23 -38 -9 0 6
6 10 13 10 23 0 79 48 114 96 39 57 43 79 10 70 -17 -4 -8 10 35 54 67 69 73
85 26 76 l-33 -6 35 21 c40 24 110 89 110 102 0 14 -81 -3 -117 -24 l-33 -18
0 31 c0 30 1 31 14 12 12 -15 17 -17 27 -6 7 6 24 12 38 12 30 0 117 48 145
79 17 19 17 21 2 27 -13 5 -8 11 22 24 70 32 64 64 -11 58 -41 -4 -40 -8 -20
78 8 37 -13 36 -46 -1z m824 -445 c-39 -64 -62 -114 -95 -204 -8 -21 -14 -26
-21 -19 -8 8 2 38 35 105 42 83 109 188 121 188 2 0 -16 -32 -40 -70z m-259
-211 l67 -30 -7 -47 c-3 -26 -19 -74 -36 -107 -27 -53 -29 -65 -22 -105 6 -27
12 -39 15 -30 4 8 22 60 41 115 61 179 54 165 89 158 75 -14 136 -45 176 -88
46 -49 45 -47 45 -129 1 -40 5 -61 14 -64 10 -3 13 10 11 58 -2 57 0 66 25 90
40 41 91 51 296 59 163 6 190 10 227 29 23 12 46 22 50 22 8 0 18 -26 83 -205
41 -113 101 -257 106 -252 2 2 -3 26 -11 52 -29 97 -7 52 49 -101 32 -85 56
-157 54 -160 -12 -11 -523 -196 -624 -224 l-67 -20 -39 42 c-41 45 -44 50 -25
46 20 -3 58 13 52 23 -3 5 2 6 11 2 13 -5 15 -3 9 7 -5 8 -4 11 3 7 5 -4 37 0
70 8 34 9 96 20 139 24 l78 8 -61 2 c-34 0 -86 -4 -115 -10 -30 -6 -71 -12
-92 -14 -23 -1 -56 -14 -80 -32 -39 -26 -46 -28 -90 -20 -73 14 -115 2 -164
-49 l-44 -44 -395 0 -395 0 16 30 c17 32 24 34 76 23 34 -8 33 -8 -16 -14 -37
-4 -23 -6 50 -6 55 -1 111 2 125 7 l25 7 -25 6 c-14 3 -65 8 -114 12 -50 3
-91 7 -92 8 -2 2 -1 12 2 24 5 19 9 20 35 11 17 -6 33 -8 36 -4 3 3 -8 11 -25
17 -33 11 -37 17 -24 34 5 7 27 5 67 -6 33 -10 51 -18 40 -18 -11 -1 -35 3
-53 8 -42 13 -41 4 3 -15 43 -18 119 -18 153 0 15 7 56 23 92 34 36 11 110 37
165 57 83 31 113 37 175 37 41 0 91 -5 110 -11 27 -9 37 -8 48 3 12 12 10 16
-16 30 -49 25 -128 29 -243 12 -182 -27 -359 -17 -453 26 -26 11 -27 15 -22
63 3 27 11 102 16 166 8 99 38 274 56 332 5 14 12 16 42 11 46 -8 66 -24 30
-24 -29 0 -42 -21 -25 -40 7 -7 8 -10 2 -7 -6 3 -11 -10 -11 -30 l-1 -34 26
23 c14 12 20 16 14 8 -16 -17 -17 -34 -2 -24 8 5 8 1 0 -14 -12 -23 -4 -55 11
-45 7 4 9 -6 5 -28 -3 -19 -8 -61 -11 -94 l-6 -60 26 75 c14 41 32 117 40 170
15 96 38 214 56 277 l9 34 39 -31 c21 -17 69 -44 106 -61z m1108 -271 c9 -28
15 -52 14 -54 -2 -1 -15 22 -29 52 -15 33 -21 54 -14 54 7 0 19 -23 29 -52z
m-1577 -240 c-3 -8 -6 -5 -6 6 -1 11 2 17 5 13 3 -3 4 -12 1 -19z m-1 -65 c-3
-21 -6 -51 -6 -66 0 -16 -4 -26 -10 -22 -5 3 -10 -2 -10 -11 0 -10 -3 -15 -6
-11 -9 9 18 147 29 147 6 0 7 -16 3 -37z m42 -111 c9 -6 7 -13 -10 -27 -13
-11 -17 -13 -10 -5 14 17 16 34 2 25 -5 -3 -10 -1 -10 4 0 13 10 14 28 3z
m-81 -34 c-3 -8 -6 -5 -6 6 -1 11 2 17 5 13 3 -3 4 -12 1 -19z m20 -10 c-3 -7
-5 -2 -5 12 0 14 2 19 5 13 2 -7 2 -19 0 -25z m727 20 c-3 -4 -11 -5 -19 -1
-21 7 -19 12 4 10 11 0 18 -5 15 -9z m-588 -10 c4 -7 4 -10 -1 -6 -4 4 -14 3
-22 -4 -11 -8 -12 -7 -7 6 7 19 20 21 30 4z m624 8 c0 -3 -4 -8 -10 -11 -5 -3
-10 -1 -10 4 0 6 5 11 10 11 6 0 10 -2 10 -4z m-578 -43 c-34 -50 -36 -58 -6
-33 16 14 23 18 17 10 -16 -18 -17 -34 -1 -24 6 4 8 3 5 -2 -8 -13 -87 -17
-87 -5 0 5 5 13 12 17 7 5 8 2 3 -7 -5 -8 4 -3 18 10 15 13 29 32 33 43 3 10
10 18 15 18 6 0 2 -12 -9 -27z m29 4 c-10 -9 -11 -8 -5 6 3 10 9 15 12 12 3
-3 0 -11 -7 -18z m171 14 c8 11 9 11 6 1 -2 -8 -6 -12 -9 -10 -3 2 -14 -4 -24
-12 -17 -14 -18 -14 -5 10 9 17 15 20 18 11 4 -11 6 -11 14 0z m38 0 c0 -5 -6
-14 -14 -20 -12 -10 -13 -8 -9 8 5 21 23 30 23 12z m-377 -13 c-4 -7 -8 -16
-8 -20 0 -14 -15 -21 -15 -7 0 8 5 20 12 27 16 16 21 15 11 0z m228 -11 c-10
-9 -11 -8 -5 6 3 10 9 15 12 12 3 -3 0 -11 -7 -18z m31 1 c-19 -19 -14 -32 6
-17 15 13 16 12 3 -4 -8 -9 -16 -15 -19 -12 -3 3 -12 -1 -21 -8 -14 -11 -14
-10 0 13 8 14 19 31 23 38 5 7 11 11 14 7 3 -3 0 -11 -6 -17z m-335 -20 c-3
-7 -5 -2 -5 12 0 14 2 19 5 13 2 -7 2 -19 0 -25z m12 -32 c-9 -8 -10 -7 -5 7
3 10 7 26 7 35 1 9 4 6 6 -7 3 -13 -1 -28 -8 -35z m118 17 c0 -8 -4 -10 -12
-3 -7 5 -16 6 -20 2 -5 -4 -5 -2 -2 4 9 15 34 13 34 -3z m-140 -40 c-3 -10 -5
-4 -5 12 0 17 2 24 5 18 2 -7 2 -21 0 -30z m210 -19 c-3 -3 -12 -4 -19 -1 -8
3 -5 6 6 6 11 1 17 -2 13 -5z"/>
<path d="M2045 3121 c29 -33 19 -34 -19 -2 -18 15 -18 15 -8 -5 15 -28 77 -57
103 -49 19 6 16 10 -22 32 -24 13 -53 32 -64 41 -11 9 -6 1 10 -17z"/>
<path d="M2446 2958 c19 -20 23 -29 11 -25 -16 6 -16 5 -1 -18 21 -32 22 -31
20 4 -1 29 -30 71 -49 71 -6 0 2 -14 19 -32z"/>
<path d="M2597 2930 c-14 -11 -24 -28 -22 -38 1 -9 0 -21 -4 -27 -21 -36 3
-60 39 -38 15 8 17 12 6 8 -15 -4 -17 -3 -7 9 9 11 9 16 0 22 -8 5 -4 11 12
21 24 14 24 14 1 10 -30 -7 -19 8 18 23 23 9 28 15 18 21 -20 13 -33 11 -61
-11z"/>
<path d="M2460 2872 c6 -13 14 -21 18 -18 3 4 -2 14 -12 24 -18 16 -18 16 -6
-6z"/>
<path d="M2430 2863 c0 -5 12 -20 26 -34 24 -21 26 -22 16 -3 -13 25 -42 50
-42 37z"/>
<path d="M2521 2754 c0 -11 3 -14 6 -6 3 7 2 16 -1 19 -3 4 -6 -2 -5 -13z"/>
<path d="M2521 2643 c-1 -52 -8 -59 -41 -38 -11 7 -10 1 4 -20 l19 -30 -21 19
c-29 26 -28 12 3 -28 27 -36 35 -62 9 -30 -15 19 -16 19 -9 -1 5 -17 3 -17
-21 5 l-28 25 15 -25 c38 -61 52 -80 56 -76 3 2 0 15 -7 28 -11 22 -10 22 4 4
9 -11 16 -36 16 -55 0 -20 3 -47 6 -61 3 -14 -8 2 -24 35 -39 80 -92 138 -149
166 -41 20 -66 23 -188 26 -149 4 -199 13 -254 45 -25 14 -31 15 -22 4 23 -27
117 -67 173 -73 51 -5 55 -7 52 -29 -1 -15 2 -22 9 -17 7 4 8 0 3 -13 -6 -15
-2 -14 20 6 l27 25 -18 -27 c-15 -25 -15 -28 -2 -28 9 0 18 4 22 9 3 6 14 8
25 6 10 -2 24 3 31 11 9 11 15 12 26 3 11 -9 19 -7 41 12 15 13 21 17 15 9
-22 -24 -14 -34 10 -14 12 10 16 12 10 4 -7 -8 -13 -19 -13 -24 1 -6 10 0 22
14 l21 25 -6 -27 c-7 -26 3 -32 29 -15 7 4 11 0 10 -10 0 -10 4 -18 9 -18 17
0 51 -29 71 -60 10 -16 14 -26 8 -22 -7 4 -17 0 -23 -7 -9 -11 -9 -16 1 -23 7
-4 22 -25 33 -46 23 -45 39 -59 25 -23 -7 19 -6 26 3 26 17 0 38 -15 36 -26
-6 -31 3 -33 36 -8 39 29 43 26 18 -14 -11 -16 2 -7 33 23 28 28 50 51 49 52
-1 2 -32 -13 -69 -31 -64 -32 -66 -33 -44 -9 32 34 67 50 105 47 18 -1 30 2
28 7 -13 20 101 39 240 39 78 0 168 5 201 11 65 12 154 52 181 81 12 13 0 10
-43 -12 -32 -17 -83 -35 -113 -40 -65 -12 -311 -13 -311 -2 0 10 0 10 100 17
160 11 180 14 227 35 26 11 65 34 85 51 37 29 37 29 48 8 7 -11 14 -18 17 -15
4 3 -2 15 -12 26 -16 18 -20 18 -34 6 -9 -8 -43 -28 -76 -43 -58 -27 -67 -28
-270 -33 -244 -7 -272 -15 -360 -105 l-50 -51 -1 156 c-1 85 -6 169 -12 185
-10 28 -10 27 -11 -22z m-321 -103 c-6 -11 -13 -20 -16 -20 -2 0 0 9 6 20 6
11 13 20 16 20 2 0 0 -9 -6 -20z m100 6 c0 -2 -8 -10 -17 -17 -16 -13 -17 -12
-4 4 13 16 21 21 21 13z m514 -111 c-4 -8 -8 -15 -10 -15 -2 0 -4 7 -4 15 0 8
4 15 10 15 5 0 7 -7 4 -15z m37 1 c5 3 9 1 9 -5 0 -5 -9 -9 -19 -8 -12 1 -17
6 -13 16 4 10 7 11 10 3 2 -7 8 -10 13 -6z m-115 -22 c-4 -9 -9 -15 -11 -12
-3 3 -3 13 1 22 4 9 9 15 11 12 3 -3 3 -13 -1 -22z m27 11 c-3 -9 -8 -14 -10
-11 -3 3 -2 9 2 15 9 16 15 13 8 -4z m-53 -30 c0 -5 -5 -3 -10 5 -8 12 -10 12
-10 1 0 -8 -2 -12 -5 -9 -3 3 -2 13 1 22 5 14 9 15 15 4 5 -7 9 -17 9 -23z
m-43 -7 c-3 -8 -6 -5 -6 6 -1 11 2 17 5 13 3 -3 4 -12 1 -19z m-26 -15 c-12
-20 -14 -14 -5 12 4 9 9 14 11 11 3 -2 0 -13 -6 -23z m-41 -36 c0 -2 -9 -12
-20 -22 -19 -17 -20 -17 -20 -1 0 9 4 15 9 11 5 -3 12 -1 16 5 6 10 15 14 15
7z"/>
<path d="M1950 2676 c0 -12 61 -36 92 -35 32 0 31 1 -12 13 -25 7 -53 16 -62
21 -10 4 -18 5 -18 1z"/>
<path d="M3172 2579 c-28 -15 -46 -29 -40 -32 7 -3 -1 -5 -18 -4 -17 0 -39 -5
-50 -11 -18 -11 -17 -11 6 -12 45 0 100 21 133 50 18 15 30 30 27 32 -3 2 -29
-9 -58 -23z"/>
<path d="M2594 2558 c-3 -5 -3 -12 0 -15 3 -3 1 -13 -6 -20 -6 -8 5 -5 25 7
48 29 51 35 16 36 -16 1 -32 -3 -35 -8z"/>
<path d="M2609 2510 c-15 -12 -19 -19 -10 -20 11 0 10 -5 -4 -20 -13 -15 -3
-12 39 11 59 32 72 53 15 25 -43 -21 -50 -20 -19 4 14 11 20 20 14 20 -7 0
-22 -9 -35 -20z"/>
<path d="M2674 2489 c-23 -11 -52 -32 -65 -46 l-24 -27 32 22 c17 12 55 33 85
47 29 14 44 25 33 24 -11 0 -39 -9 -61 -20z"/>
<path d="M3305 2389 c-33 -15 -55 -28 -50 -28 6 -1 3 -6 -5 -11 -13 -9 -13
-10 0 -10 18 0 92 33 121 53 38 27 -4 25 -66 -4z"/>
<path d="M3145 2389 c-44 -10 -136 -25 -205 -33 -146 -17 -213 -36 -255 -71
-28 -23 -26 -23 26 5 37 20 82 33 135 40 204 27 294 42 354 60 82 24 50 23
-55 -1z"/>
<path d="M2445 2309 c19 -17 35 -36 35 -42 0 -5 -8 -3 -18 6 -30 27 -105 57
-142 56 l-35 -1 30 -8 c28 -7 29 -8 5 -10 -17 -1 -10 -5 25 -14 28 -7 61 -18
74 -26 14 -7 37 -14 53 -15 27 -2 27 -2 13 26 -8 15 -25 35 -37 43 -38 27 -40
17 -3 -15z"/>
<path d="M2640 2330 c-9 -6 -10 -10 -3 -10 6 0 15 5 18 10 8 12 4 12 -15 0z"/>
<path d="M2050 2290 l-25 -8 25 0 c14 0 45 3 70 7 l45 8 -45 1 c-25 0 -56 -4
-70 -8z"/>
<path d="M3010 2289 c-180 -24 -211 -30 -250 -45 -53 -21 -46 -29 9 -9 24 8
100 22 169 31 70 9 134 20 142 25 17 10 18 10 -70 -2z"/>
<path d="M2115 2244 c-66 -16 -130 -24 -189 -25 -48 0 -86 -2 -83 -5 14 -15
196 -2 310 21 131 26 213 32 202 15 -4 -6 10 -17 30 -26 47 -19 56 -12 13 10
l-33 17 30 -5 c27 -6 28 -5 10 6 -37 23 -181 19 -290 -8z"/>
<path d="M2310 2199 c25 -4 59 -8 75 -8 26 0 27 2 10 9 -11 5 -45 8 -75 8
l-55 -1 45 -8z"/>
<path d="M1938 2183 c23 -2 61 -2 85 0 23 2 4 4 -43 4 -47 0 -66 -2 -42 -4z"/>
<path d="M2208 2173 c34 -2 88 -2 120 0 31 2 3 3 -63 3 -66 0 -92 -1 -57 -3z"/>
<path d="M3372 3753 c4 -61 4 -61 -20 -52 -13 5 -44 9 -69 9 -45 0 -46 -1 -29
-19 9 -10 39 -29 66 -42 40 -19 46 -25 33 -34 -13 -10 -10 -16 23 -42 51 -40
97 -63 127 -63 12 0 29 -6 36 -12 10 -11 15 -9 27 6 13 19 14 18 14 -11 l0
-30 -37 18 c-21 10 -55 21 -77 25 -36 6 -38 6 -27 -14 18 -34 93 -92 136 -104
22 -7 43 -16 46 -21 12 -17 38 1 45 29 9 34 -10 106 -37 151 -22 36 -39 35
-40 0 0 -13 -8 0 -18 30 -21 60 -67 126 -83 117 -6 -4 -8 -29 -6 -60 4 -51 4
-52 -16 -42 -12 7 -37 15 -56 19 -33 7 -33 8 10 6 44 -2 45 -1 48 31 4 37 -30
102 -73 142 l-27 25 4 -62z"/>
<path d="M1760 3783 c0 -39 16 -47 51 -27 44 26 42 38 -8 42 -36 3 -43 0 -43
-15z"/>
<path d="M732 3742 c-19 -6 -102 -138 -102 -162 0 -12 10 -25 25 -32 34 -16
59 5 51 44 -4 22 -2 27 7 21 6 -4 52 -33 102 -65 49 -32 93 -58 97 -58 4 0 12
9 18 19 9 17 -1 26 -83 77 -50 31 -99 64 -107 72 -13 12 -13 13 6 8 28 -8 48
16 40 48 -6 24 -30 36 -54 28z"/>
<path d="M4160 3674 c-132 -83 -134 -85 -118 -107 12 -16 17 -14 66 19 30 19
55 34 56 32 11 -15 46 -77 46 -81 0 -3 -22 -19 -50 -36 -53 -32 -58 -42 -37
-60 11 -8 41 7 133 64 65 42 120 79 122 84 1 4 -4 14 -13 21 -13 10 -22 8 -55
-14 -55 -36 -57 -36 -84 9 -22 36 -23 40 -8 52 10 7 30 10 48 7 43 -8 63 16
40 51 -9 14 -22 25 -29 25 -6 0 -59 -30 -117 -66z"/>
<path d="M3681 3409 c-6 -18 -11 -45 -11 -60 l0 -28 -47 29 c-51 30 -113 48
-113 32 0 -5 26 -37 59 -71 46 -48 54 -60 35 -55 -31 8 -30 -2 5 -57 29 -47
97 -109 118 -109 6 0 15 -9 18 -20 9 -28 29 -25 51 8 13 18 19 46 19 87 0 58
-19 125 -36 125 -4 0 -16 -23 -27 -51 -10 -28 -20 -51 -23 -52 -2 -1 -24 13
-49 31 -24 17 -39 32 -33 32 6 0 23 -10 38 -22 l28 -22 20 25 c16 19 18 34 14
79 -5 53 -33 130 -48 130 -4 0 -12 -14 -18 -31z"/>
<path d="M3811 3079 c-17 -30 -31 -58 -31 -62 0 -4 -14 8 -32 28 -30 35 -105
81 -115 71 -8 -8 41 -108 71 -143 15 -18 36 -35 46 -38 11 -4 20 -12 20 -19 0
-8 7 -19 15 -26 22 -18 62 21 76 74 12 43 5 144 -11 160 -5 5 -21 -15 -39 -45z"/>
<path d="M3670 2951 c0 -39 42 -132 73 -164 18 -18 38 -45 44 -60 10 -22 16
-26 31 -18 28 15 53 47 68 88 15 44 19 153 4 153 -11 0 -80 -89 -80 -104 0 -6
-7 1 -17 14 -27 42 -67 81 -95 96 -26 14 -28 13 -28 -5z"/>
<path d="M1233 1334 c-12 -80 -23 -148 -25 -150 -3 -2 -72 16 -154 40 -82 24
-150 40 -152 35 -14 -36 293 -399 404 -476 l31 -22 -5 134 -5 134 68 78 c37
43 69 84 72 91 3 6 -19 38 -48 70 -30 32 -76 92 -104 134 -27 42 -52 77 -55
77 -3 1 -15 -65 -27 -145z"/>
<path d="M3687 1403 c-25 -38 -71 -97 -101 -133 -31 -36 -56 -67 -56 -70 0 -3
32 -42 71 -88 l71 -83 -4 -129 c-1 -72 0 -130 3 -130 13 0 158 132 210 191
101 116 219 277 219 299 0 4 -68 -13 -151 -37 -102 -30 -154 -41 -158 -34 -4
6 -16 72 -26 146 -10 74 -21 135 -25 135 -4 0 -27 -30 -53 -67z"/>
<path d="M1559 1253 c-46 -54 -107 -126 -137 -160 l-53 -62 103 -71 c116 -80
321 -184 449 -229 546 -188 1138 -99 1626 243 40 28 73 54 73 59 0 8 -260 317
-267 317 -3 0 -42 -24 -86 -54 -348 -229 -758 -294 -1155 -180 -105 30 -279
113 -384 183 -42 28 -78 51 -81 51 -3 0 -42 -44 -88 -97z m1450 -304 c11 -57
23 -112 26 -121 4 -10 -1 -17 -15 -21 -24 -6 -50 16 -50 43 0 17 -6 18 -55 13
-47 -5 -55 -3 -55 11 0 24 87 193 102 199 19 6 24 -8 47 -124z m-855 57 c26
-93 56 -229 52 -233 -2 -2 -15 -1 -29 2 -20 5 -28 16 -36 52 -12 44 -12 45
-34 29 -60 -44 -95 -56 -122 -44 -52 23 -44 65 30 153 23 28 49 62 59 76 12
20 22 25 41 21 20 -3 28 -14 39 -56z m626 12 c-14 -11 -19 -17 -11 -13 9 5 8
0 -3 -17 -16 -25 -16 -26 12 -31 58 -12 90 -120 49 -165 -22 -24 -82 -24 -120
1 -31 20 -51 77 -42 123 7 41 58 102 100 120 39 16 46 8 15 -18z m-414 12 c62
0 66 -11 26 -68 -13 -18 -19 -32 -13 -32 16 0 41 -55 41 -90 0 -19 -9 -40 -24
-55 -19 -19 -31 -23 -67 -19 -68 6 -104 53 -83 108 4 10 18 16 35 16 29 0 29
0 16 -32 -18 -45 -11 -68 19 -68 18 0 28 8 38 31 19 44 9 77 -28 96 -43 22
-43 20 -12 52 34 36 27 51 -25 51 -22 0 -39 5 -39 11 0 8 11 9 31 5 17 -3 56
-6 85 -6z m258 -6 c9 -3 16 -17 16 -30 0 -21 -5 -24 -38 -24 -21 0 -47 -7 -58
-15 -12 -8 -24 -12 -27 -9 -3 3 -3 -3 0 -15 3 -11 9 -18 14 -15 15 9 87 -83
117 -148 2 -5 -10 -8 -27 -8 -27 0 -35 7 -68 65 -20 36 -41 65 -45 65 -4 0 -8
-31 -8 -70 0 -60 -2 -70 -17 -70 -37 0 -41 13 -45 143 l-3 127 28 0 c26 0 32
-8 27 -40 -1 -10 8 -6 27 11 39 37 72 47 107 33z"/>
<path d="M2957 1054 c-4 -4 -7 -14 -7 -23 0 -11 3 -12 11 -4 6 6 10 16 7 23
-2 6 -7 8 -11 4z"/>
<path d="M2912 955 c-23 -47 -20 -51 25 -39 19 5 22 11 17 33 -13 51 -19 52
-42 6z"/>
<path d="M2962 980 c0 -14 2 -19 5 -12 2 6 2 18 0 25 -3 6 -5 1 -5 -13z"/>
<path d="M2971 934 c-1 -23 -19 -34 -52 -34 -10 0 -19 -4 -19 -9 0 -9 66 2 77
12 2 3 3 16 0 29 -4 21 -4 21 -6 2z"/>
<path d="M2108 1043 c7 -3 16 -2 19 1 4 3 -2 6 -13 5 -11 0 -14 -3 -6 -6z"/>
<path d="M2062 991 c-18 -23 -31 -45 -28 -50 3 -4 -4 -17 -17 -27 l-22 -19 20
25 c17 22 17 23 1 8 -17 -15 -32 -68 -20 -68 3 0 25 14 49 30 24 17 51 30 59
30 16 0 15 19 -3 88 -6 23 -8 22 -39 -17z"/>
<path d="M2121 974 c0 -11 3 -14 6 -6 3 7 2 16 -1 19 -3 4 -6 -2 -5 -13z"/>
<path d="M2059 884 c-19 -14 -41 -29 -49 -34 -8 -5 -12 -12 -8 -16 8 -7 107
56 108 69 0 13 -16 7 -51 -19z"/>
<path d="M2151 844 c0 -11 3 -14 6 -6 3 7 2 16 -1 19 -3 4 -6 -2 -5 -13z"/>
<path d="M2703 967 c-17 -24 -23 -46 -22 -83 l2 -49 6 45 c4 25 16 62 28 83
28 46 16 49 -14 4z"/>
<path d="M2732 915 c-24 -51 -8 -115 27 -115 34 0 44 78 15 118 -20 28 -28 28
-42 -3z"/>
<path d="M2800 848 c-3 -26 -1 -43 3 -39 5 5 7 26 5 47 l-3 39 -5 -47z"/>
<path d="M2340 980 c-18 -23 -31 -43 -28 -45 5 -6 18 5 57 48 25 26 30 37 19
37 -9 0 -31 -18 -48 -40z"/>
<path d="M2257 866 c-4 -10 -7 -25 -6 -34 0 -11 4 -9 10 7 5 13 8 29 6 35 -2
5 -6 2 -10 -8z"/>
<path d="M2374 835 c-6 -19 -7 -35 -3 -35 10 0 23 44 17 60 -1 5 -8 -6 -14
-25z"/>
<path d="M2452 888 c2 -125 5 -110 10 40 2 45 0 82 -4 82 -5 0 -7 -55 -6 -122z"/>
<path d="M2540 995 c-11 -13 -8 -13 16 -5 16 5 38 11 49 13 11 3 4 5 -16 6
-21 1 -42 -5 -49 -14z"/>
<path d="M1355 898 c4 -57 8 -103 9 -104 0 -1 25 27 54 62 l52 63 -53 41 c-30
22 -57 40 -61 40 -4 0 -4 -46 -1 -102z"/>
<path d="M3582 959 l-53 -40 52 -60 c28 -33 53 -58 54 -57 6 8 13 198 7 198
-4 0 -31 -19 -60 -41z"/>
<path d="M1753 563 c-26 -10 -13 -33 18 -33 43 0 35 -27 -19 -63 -23 -15 -42
-34 -42 -42 0 -8 20 -18 50 -24 63 -14 60 -14 60 4 0 8 -14 18 -31 22 l-31 8
39 25 c47 31 56 70 21 94 -22 16 -42 19 -65 9z"/>
<path d="M3192 560 c-39 -9 -46 -15 -38 -29 4 -5 22 -7 43 -4 l36 6 -7 -39
c-4 -21 -10 -52 -13 -68 -5 -23 -3 -27 13 -24 13 2 21 19 31 63 18 90 17 105
-9 104 -13 -1 -38 -5 -56 -9z"/>
<path d="M1926 508 c-19 -32 -27 -84 -16 -112 17 -46 78 -46 98 0 16 33 15
107 0 122 -20 20 -66 14 -82 -10z m57 -53 c-3 -41 -19 -68 -35 -59 -10 6 -4
77 8 96 13 21 29 -1 27 -37z"/>
<path d="M2994 516 c-15 -12 -16 -17 -7 -27 10 -10 15 -10 27 0 17 14 36 7 36
-13 0 -7 -13 -33 -30 -57 -16 -25 -25 -48 -20 -53 14 -14 110 4 110 21 0 11
-9 14 -35 11 -19 -2 -35 -4 -35 -3 0 1 11 16 25 35 29 39 31 62 9 84 -19 20
-54 20 -80 2z"/>
<path d="M2121 499 c-31 -12 -12 -38 24 -31 38 7 31 -20 -15 -62 -55 -49 -52
-63 13 -68 49 -4 72 6 61 24 -3 4 -19 8 -37 8 l-32 0 38 31 c43 35 48 70 15
93 -25 18 -33 19 -67 5z"/>
<path d="M2809 484 c-17 -20 -16 -87 1 -120 15 -27 66 -34 88 -12 17 17 15
100 -4 126 -18 26 -65 30 -85 6z m61 -55 c7 -41 2 -59 -16 -59 -15 0 -29 61
-20 86 10 25 31 10 36 -27z"/>
<path d="M2318 441 c-47 -61 -49 -81 -8 -81 23 0 30 -4 30 -20 0 -13 7 -20 20
-20 11 0 20 6 20 14 0 8 5 16 12 18 7 3 9 11 3 24 -4 10 -9 39 -9 64 -1 61
-22 61 -68 1z m32 -31 c0 -11 -7 -20 -15 -20 -13 0 -14 4 -5 20 6 11 13 20 15
20 3 0 5 -9 5 -20z"/>
<path d="M2620 475 c-16 -19 -3 -40 16 -24 15 12 44 6 44 -10 0 -5 -16 -28
-35 -51 -52 -62 -48 -74 21 -67 31 3 58 8 61 11 12 11 -11 26 -39 26 l-32 0
26 28 c34 37 39 56 22 81 -18 25 -65 28 -84 6z"/>
<path d="M2470 381 c0 -25 53 -24 58 2 3 13 -3 17 -27 17 -24 0 -31 -5 -31
-19z"/>
</g>
</svg>
